<!-- Generated by IcoMoon.io -->
<svg version="1.1" xmlns="http://www.w3.org/2000/svg" width="32" height="32" viewBox="0 0 32 32">
<title>Subtraction-2</title>
<path fill="#6f00ff" d="M16 32c-0.001 0-0.002 0-0.004 0-1.14 0-2.252-0.118-3.326-0.343l0.105 0.018c-1.146-0.238-2.151-0.559-3.107-0.972l0.103 0.040c-1.044-0.446-1.937-0.94-2.773-1.511l0.055 0.036c-0.885-0.603-1.659-1.245-2.368-1.954l0 0c-0.708-0.709-1.351-1.483-1.918-2.313l-0.036-0.055c-0.535-0.781-1.029-1.674-1.435-2.614l-0.040-0.104c-0.373-0.853-0.694-1.857-0.914-2.9l-0.018-0.104c-0.207-0.968-0.325-2.080-0.325-3.22 0-0.001 0-0.003 0-0.004v0c0-0.001 0-0.002 0-0.004 0-1.14 0.118-2.252 0.343-3.326l-0.018 0.105c0.238-1.146 0.559-2.151 0.972-3.107l-0.040 0.103c0.446-1.044 0.94-1.937 1.511-2.773l-0.036 0.055c0.603-0.885 1.245-1.659 1.954-2.368l-0 0c0.708-0.708 1.483-1.351 2.313-1.918l0.055-0.036c0.781-0.535 1.674-1.029 2.614-1.435l0.104-0.040c0.853-0.373 1.857-0.694 2.9-0.914l0.104-0.018c0.968-0.207 2.080-0.325 3.22-0.325 0.001 0 0.003 0 0.004 0h-0c0.001 0 0.002 0 0.004 0 1.14 0 2.253 0.118 3.326 0.343l-0.105-0.018c1.146 0.238 2.151 0.559 3.107 0.972l-0.103-0.040c1.044 0.446 1.937 0.94 2.773 1.511l-0.055-0.036c0.885 0.603 1.66 1.245 2.368 1.954l-0-0c0.708 0.708 1.351 1.483 1.918 2.313l0.036 0.055c0.535 0.781 1.029 1.674 1.435 2.614l0.040 0.104c0.373 0.853 0.694 1.857 0.914 2.9l0.018 0.104c0.207 0.968 0.325 2.081 0.325 3.221 0 0.001 0 0.003 0 0.004v-0c0 0.001 0 0.003 0 0.004 0 1.14-0.118 2.253-0.343 3.326l0.018-0.105c-0.238 1.146-0.559 2.151-0.972 3.107l0.040-0.103c-0.446 1.044-0.94 1.937-1.511 2.773l0.036-0.055c-0.603 0.885-1.245 1.66-1.954 2.368l0-0c-0.709 0.708-1.483 1.351-2.313 1.918l-0.055 0.036c-0.781 0.535-1.674 1.029-2.614 1.435l-0.104 0.040c-0.853 0.373-1.857 0.694-2.899 0.914l-0.104 0.018c-0.968 0.207-2.080 0.325-3.22 0.325-0.001 0-0.003 0-0.004 0h0zM6.528 17.28v2.24h14.272v2.112l8.704-4.352h-22.976zM11.264 10.368l-8.704 4.352h22.976v-2.24h-14.272v-2.112z"></path>
</svg>
