<svg xmlns="http://www.w3.org/2000/svg" width="500" height="500.01" viewBox="0 0 500 500.01">
  <path id="Subtraction_2" data-name="Subtraction 2" d="M-320,1166a251.847,251.847,0,0,1-50.384-5.079,248.744,248.744,0,0,1-46.928-14.567,250.033,250.033,0,0,1-42.466-23.05,251.794,251.794,0,0,1-37-30.527,251.8,251.8,0,0,1-30.527-37,250.017,250.017,0,0,1-23.05-42.466,248.744,248.744,0,0,1-14.567-46.928A251.854,251.854,0,0,1-570,916a251.854,251.854,0,0,1,5.079-50.384,248.745,248.745,0,0,1,14.567-46.928,250.015,250.015,0,0,1,23.05-42.466,251.792,251.792,0,0,1,30.527-37,251.78,251.78,0,0,1,37-30.527,250.015,250.015,0,0,1,42.466-23.05,248.754,248.754,0,0,1,46.928-14.567A251.856,251.856,0,0,1-320,666a251.852,251.852,0,0,1,50.384,5.079,248.749,248.749,0,0,1,46.927,14.567,250.019,250.019,0,0,1,42.466,23.05,251.791,251.791,0,0,1,37,30.527,251.8,251.8,0,0,1,30.527,37,250.019,250.019,0,0,1,23.05,42.466,248.738,248.738,0,0,1,14.567,46.928A251.849,251.849,0,0,1-70,916a251.849,251.849,0,0,1-5.079,50.384,248.742,248.742,0,0,1-14.567,46.928,250.021,250.021,0,0,1-23.05,42.466,251.815,251.815,0,0,1-30.527,37,251.8,251.8,0,0,1-37,30.527,250.032,250.032,0,0,1-42.466,23.05,248.745,248.745,0,0,1-46.927,14.567A251.843,251.843,0,0,1-320,1166ZM-468,936v35h223v33l136-68H-468Zm74-108-136,68h359V861H-394V828Z" transform="translate(570 -666)" fill="#6f00ff"/>
</svg>
