<!-- Generated by IcoMoon.io -->
<svg version="1.1" xmlns="http://www.w3.org/2000/svg" width="32" height="32" viewBox="0 0 32 32">
<title>favicon</title>
<path fill="#6f00ff" d="M16 32c-0.001 0-0.002 0-0.004 0-1.14 0-2.252-0.118-3.326-0.343l0.105 0.018c-2.171-0.454-4.090-1.29-5.776-2.443l0.055 0.035c-2.552-1.739-4.543-4.13-5.757-6.935l-0.040-0.104c-0.373-0.853-0.694-1.857-0.914-2.9l-0.018-0.104c-0.207-0.969-0.325-2.083-0.325-3.225s0.118-2.255 0.344-3.33l-0.018 0.105c0.454-2.171 1.29-4.090 2.443-5.776l-0.035 0.055c1.74-2.552 4.13-4.543 6.935-5.757l0.104-0.040c0.853-0.373 1.857-0.694 2.9-0.914l0.104-0.018c0.969-0.207 2.083-0.325 3.225-0.325s2.255 0.118 3.33 0.344l-0.105-0.018c2.171 0.454 4.090 1.29 5.776 2.443l-0.055-0.035c2.552 1.74 4.543 4.13 5.757 6.936l0.040 0.104c0.373 0.853 0.694 1.857 0.914 2.9l0.018 0.104c0.207 0.969 0.325 2.083 0.325 3.225s-0.118 2.255-0.343 3.33l0.018-0.105c-0.454 2.171-1.29 4.090-2.443 5.776l0.035-0.055c-1.74 2.552-4.13 4.544-6.936 5.757l-0.104 0.040c-0.853 0.373-1.857 0.694-2.9 0.914l-0.104 0.018c-0.968 0.207-2.081 0.325-3.221 0.325-0.001 0-0.002 0-0.004 0h0zM9.691 5.86l2.568 6.994c-1.853 1.219-2.874 3.43-2.874 6.228 0 4.29 2.477 7.173 6.164 7.173 2.912 0 5.118-1.788 5.618-4.555h-1.691c-0.101 0.485-0.284 0.915-0.534 1.296l0.009-0.014c-0.243 0.367-0.541 0.676-0.886 0.924l-0.010 0.007c-0.334 0.24-0.722 0.434-1.139 0.561l-0.028 0.007c-0.395 0.122-0.85 0.192-1.321 0.192-0.006 0-0.012 0-0.019-0h0.001c-0.010 0-0.023 0-0.035 0-0.63 0-1.229-0.134-1.77-0.375l0.028 0.011c-0.569-0.257-1.049-0.619-1.433-1.066l-0.005-0.005c-0.418-0.493-0.747-1.077-0.952-1.716l-0.010-0.036c-0.223-0.691-0.351-1.485-0.351-2.309 0-0.033 0-0.066 0.001-0.099l-0 0.005c0-1.048 0.166-1.987 0.492-2.792 0.309-0.762 0.755-1.387 1.324-1.858l1.98 5.392h1.745l1.915-5.216c0.24 0.236 0.446 0.506 0.61 0.803l0.009 0.018c0.165 0.299 0.295 0.645 0.373 1.010l0.004 0.025h1.691c-0.263-1.452-0.988-2.65-2.098-3.464l2.622-7.14h-1.773l-2.257 6.4c-0.629-0.222-1.354-0.351-2.108-0.351-0.663 0-1.303 0.099-1.906 0.283l0.046-0.012-2.229-6.321zM15.609 17.615l-1.386-3.929c0.391-0.123 0.841-0.195 1.307-0.195 0.007 0 0.013 0 0.020 0h-0.001c0.008-0 0.017-0 0.026-0 0.558 0 1.093 0.1 1.587 0.284l-0.032-0.010-1.358 3.85h-0.164z"></path>
</svg>
